<svg xmlns="http://www.w3.org/2000/svg" width="192" height="192" viewBox="0 0 192 192">
  <!-- Background circle -->
  <circle cx="96" cy="96" r="96" fill="#0891b2"/>

  <!-- Inner lighter circle -->
  <circle cx="96" cy="96" r="80" fill="#06b6d4"/>

  <!-- Shuttlecock cork (bottom) -->
  <ellipse cx="96" cy="130" rx="18" ry="12" fill="#f8fafc"/>
  <ellipse cx="96" cy="130" rx="14" ry="9" fill="#e2e8f0"/>

  <!-- Shuttlecock feathers -->
  <path d="M96 125 L66 55 Q74 45 96 45 Q118 45 126 55 L96 125 Z" fill="#f8fafc" stroke="#0891b2" stroke-width="3"/>

  <!-- Feather lines -->
  <line x1="96" y1="50" x2="96" y2="115" stroke="#0891b2" stroke-width="2.5"/>
  <line x1="78" y1="65" x2="84" y2="112" stroke="#0891b2" stroke-width="2"/>
  <line x1="114" y1="65" x2="108" y2="112" stroke="#0891b2" stroke-width="2"/>
  <line x1="71" y1="80" x2="80" y2="108" stroke="#0891b2" stroke-width="1.5"/>
  <line x1="121" y1="80" x2="112" y2="108" stroke="#0891b2" stroke-width="1.5"/>

  <!-- Top curve -->
  <path d="M66 55 Q74 42 96 42 Q118 42 126 55" fill="none" stroke="#0891b2" stroke-width="3"/>
</svg>
